<svg xmlns="http://www.w3.org/2000/svg" width="300" height="300" baseProfile="tiny" version="1.1"><rect width="300" height="300" x="0" y="0" fill="#fff" shape-rendering="optimizeSpeed"/><rect width="12" height="12" x="0" y="0" fill="#000" shape-rendering="optimizeSpeed"/><rect width="12" height="12" x="12" y="0" fill="#000" shape-rendering="optimizeSpeed"/><rect width="12" height="12" x="24" y="0" fill="#000" shape-rendering="optimizeSpeed"/><rect width="12" height="12" x="36" y="0" fill="#000" shape-rendering="optimizeSpeed"/><rect width="12" height="12" x="48" y="0" fill="#000" shape-rendering="optimizeSpeed"/><rect width="12" height="12" x="60" y="0" fill="#000" shape-rendering="optimizeSpeed"/><rect width="12" height="12" x="72" y="0" fill="#000" shape-rendering="optimizeSpeed"/><rect width="12" height="12" x="96" y="0" fill="#000" shape-rendering="optimizeSpeed"/><rect width="12" height="12" x="132" y="0" fill="#000" shape-rendering="optimizeSpeed"/><rect width="12" height="12" x="144" y="0" fill="#000" shape-rendering="optimizeSpeed"/><rect width="12" height="12" x="168" y="0" fill="#000" shape-rendering="optimizeSpeed"/><rect width="12" height="12" x="192" y="0" fill="#000" shape-rendering="optimizeSpeed"/><rect width="12" height="12" x="216" y="0" fill="#000" shape-rendering="optimizeSpeed"/><rect width="12" height="12" x="228" y="0" fill="#000" shape-rendering="optimizeSpeed"/><rect width="12" height="12" x="240" y="0" fill="#000" shape-rendering="optimizeSpeed"/><rect width="12" height="12" x="252" y="0" fill="#000" shape-rendering="optimizeSpeed"/><rect width="12" height="12" x="264" y="0" fill="#000" shape-rendering="optimizeSpeed"/><rect width="12" height="12" x="276" y="0" fill="#000" shape-rendering="optimizeSpeed"/><rect width="12" height="12" x="288" y="0" fill="#000" shape-rendering="optimizeSpeed"/><rect width="12" height="12" x="0" y="12" fill="#000" shape-rendering="optimizeSpeed"/><rect width="12" height="12" x="72" y="12" fill="#000" shape-rendering="optimizeSpeed"/><rect width="12" height="12" x="108" y="12" fill="#000" shape-rendering="optimizeSpeed"/><rect width="12" height="12" x="120" y="12" fill="#000" shape-rendering="optimizeSpeed"/><rect width="12" height="12" x="192" y="12" fill="#000" shape-rendering="optimizeSpeed"/><rect width="12" height="12" x="216" y="12" fill="#000" shape-rendering="optimizeSpeed"/><rect width="12" height="12" x="288" y="12" fill="#000" shape-rendering="optimizeSpeed"/><rect width="12" height="12" x="0" y="24" fill="#000" shape-rendering="optimizeSpeed"/><rect width="12" height="12" x="24" y="24" fill="#000" shape-rendering="optimizeSpeed"/><rect width="12" height="12" x="36" y="24" fill="#000" shape-rendering="optimizeSpeed"/><rect width="12" height="12" x="48" y="24" fill="#000" shape-rendering="optimizeSpeed"/><rect width="12" height="12" x="72" y="24" fill="#000" shape-rendering="optimizeSpeed"/><rect width="12" height="12" x="120" y="24" fill="#000" shape-rendering="optimizeSpeed"/><rect width="12" height="12" x="144" y="24" fill="#000" shape-rendering="optimizeSpeed"/><rect width="12" height="12" x="156" y="24" fill="#000" shape-rendering="optimizeSpeed"/><rect width="12" height="12" x="180" y="24" fill="#000" shape-rendering="optimizeSpeed"/><rect width="12" height="12" x="216" y="24" fill="#000" shape-rendering="optimizeSpeed"/><rect width="12" height="12" x="240" y="24" fill="#000" shape-rendering="optimizeSpeed"/><rect width="12" height="12" x="252" y="24" fill="#000" shape-rendering="optimizeSpeed"/><rect width="12" height="12" x="264" y="24" fill="#000" shape-rendering="optimizeSpeed"/><rect width="12" height="12" x="288" y="24" fill="#000" shape-rendering="optimizeSpeed"/><rect width="12" height="12" x="0" y="36" fill="#000" shape-rendering="optimizeSpeed"/><rect width="12" height="12" x="24" y="36" fill="#000" shape-rendering="optimizeSpeed"/><rect width="12" height="12" x="36" y="36" fill="#000" shape-rendering="optimizeSpeed"/><rect width="12" height="12" x="48" y="36" fill="#000" shape-rendering="optimizeSpeed"/><rect width="12" height="12" x="72" y="36" fill="#000" shape-rendering="optimizeSpeed"/><rect width="12" height="12" x="144" y="36" fill="#000" shape-rendering="optimizeSpeed"/><rect width="12" height="12" x="156" y="36" fill="#000" shape-rendering="optimizeSpeed"/><rect width="12" height="12" x="192" y="36" fill="#000" shape-rendering="optimizeSpeed"/><rect width="12" height="12" x="216" y="36" fill="#000" shape-rendering="optimizeSpeed"/><rect width="12" height="12" x="240" y="36" fill="#000" shape-rendering="optimizeSpeed"/><rect width="12" height="12" x="252" y="36" fill="#000" shape-rendering="optimizeSpeed"/><rect width="12" height="12" x="264" y="36" fill="#000" shape-rendering="optimizeSpeed"/><rect width="12" height="12" x="288" y="36" fill="#000" shape-rendering="optimizeSpeed"/><rect width="12" height="12" x="0" y="48" fill="#000" shape-rendering="optimizeSpeed"/><rect width="12" height="12" x="24" y="48" fill="#000" shape-rendering="optimizeSpeed"/><rect width="12" height="12" x="36" y="48" fill="#000" shape-rendering="optimizeSpeed"/><rect width="12" height="12" x="48" y="48" fill="#000" shape-rendering="optimizeSpeed"/><rect width="12" height="12" x="72" y="48" fill="#000" shape-rendering="optimizeSpeed"/><rect width="12" height="12" x="108" y="48" fill="#000" shape-rendering="optimizeSpeed"/><rect width="12" height="12" x="132" y="48" fill="#000" shape-rendering="optimizeSpeed"/><rect width="12" height="12" x="168" y="48" fill="#000" shape-rendering="optimizeSpeed"/><rect width="12" height="12" x="192" y="48" fill="#000" shape-rendering="optimizeSpeed"/><rect width="12" height="12" x="216" y="48" fill="#000" shape-rendering="optimizeSpeed"/><rect width="12" height="12" x="240" y="48" fill="#000" shape-rendering="optimizeSpeed"/><rect width="12" height="12" x="252" y="48" fill="#000" shape-rendering="optimizeSpeed"/><rect width="12" height="12" x="264" y="48" fill="#000" shape-rendering="optimizeSpeed"/><rect width="12" height="12" x="288" y="48" fill="#000" shape-rendering="optimizeSpeed"/><rect width="12" height="12" x="0" y="60" fill="#000" shape-rendering="optimizeSpeed"/><rect width="12" height="12" x="72" y="60" fill="#000" shape-rendering="optimizeSpeed"/><rect width="12" height="12" x="120" y="60" fill="#000" shape-rendering="optimizeSpeed"/><rect width="12" height="12" x="144" y="60" fill="#000" shape-rendering="optimizeSpeed"/><rect width="12" height="12" x="156" y="60" fill="#000" shape-rendering="optimizeSpeed"/><rect width="12" height="12" x="192" y="60" fill="#000" shape-rendering="optimizeSpeed"/><rect width="12" height="12" x="216" y="60" fill="#000" shape-rendering="optimizeSpeed"/><rect width="12" height="12" x="288" y="60" fill="#000" shape-rendering="optimizeSpeed"/><rect width="12" height="12" x="0" y="72" fill="#000" shape-rendering="optimizeSpeed"/><rect width="12" height="12" x="12" y="72" fill="#000" shape-rendering="optimizeSpeed"/><rect width="12" height="12" x="24" y="72" fill="#000" shape-rendering="optimizeSpeed"/><rect width="12" height="12" x="36" y="72" fill="#000" shape-rendering="optimizeSpeed"/><rect width="12" height="12" x="48" y="72" fill="#000" shape-rendering="optimizeSpeed"/><rect width="12" height="12" x="60" y="72" fill="#000" shape-rendering="optimizeSpeed"/><rect width="12" height="12" x="72" y="72" fill="#000" shape-rendering="optimizeSpeed"/><rect width="12" height="12" x="96" y="72" fill="#000" shape-rendering="optimizeSpeed"/><rect width="12" height="12" x="120" y="72" fill="#000" shape-rendering="optimizeSpeed"/><rect width="12" height="12" x="144" y="72" fill="#000" shape-rendering="optimizeSpeed"/><rect width="12" height="12" x="168" y="72" fill="#000" shape-rendering="optimizeSpeed"/><rect width="12" height="12" x="192" y="72" fill="#000" shape-rendering="optimizeSpeed"/><rect width="12" height="12" x="216" y="72" fill="#000" shape-rendering="optimizeSpeed"/><rect width="12" height="12" x="228" y="72" fill="#000" shape-rendering="optimizeSpeed"/><rect width="12" height="12" x="240" y="72" fill="#000" shape-rendering="optimizeSpeed"/><rect width="12" height="12" x="252" y="72" fill="#000" shape-rendering="optimizeSpeed"/><rect width="12" height="12" x="264" y="72" fill="#000" shape-rendering="optimizeSpeed"/><rect width="12" height="12" x="276" y="72" fill="#000" shape-rendering="optimizeSpeed"/><rect width="12" height="12" x="288" y="72" fill="#000" shape-rendering="optimizeSpeed"/><rect width="12" height="12" x="96" y="84" fill="#000" shape-rendering="optimizeSpeed"/><rect width="12" height="12" x="120" y="84" fill="#000" shape-rendering="optimizeSpeed"/><rect width="12" height="12" x="132" y="84" fill="#000" shape-rendering="optimizeSpeed"/><rect width="12" height="12" x="156" y="84" fill="#000" shape-rendering="optimizeSpeed"/><rect width="12" height="12" x="192" y="84" fill="#000" shape-rendering="optimizeSpeed"/><rect width="12" height="12" x="0" y="96" fill="#000" shape-rendering="optimizeSpeed"/><rect width="12" height="12" x="12" y="96" fill="#000" shape-rendering="optimizeSpeed"/><rect width="12" height="12" x="36" y="96" fill="#000" shape-rendering="optimizeSpeed"/><rect width="12" height="12" x="48" y="96" fill="#000" shape-rendering="optimizeSpeed"/><rect width="12" height="12" x="72" y="96" fill="#000" shape-rendering="optimizeSpeed"/><rect width="12" height="12" x="108" y="96" fill="#000" shape-rendering="optimizeSpeed"/><rect width="12" height="12" x="120" y="96" fill="#000" shape-rendering="optimizeSpeed"/><rect width="12" height="12" x="132" y="96" fill="#000" shape-rendering="optimizeSpeed"/><rect width="12" height="12" x="168" y="96" fill="#000" shape-rendering="optimizeSpeed"/><rect width="12" height="12" x="192" y="96" fill="#000" shape-rendering="optimizeSpeed"/><rect width="12" height="12" x="216" y="96" fill="#000" shape-rendering="optimizeSpeed"/><rect width="12" height="12" x="288" y="96" fill="#000" shape-rendering="optimizeSpeed"/><rect width="12" height="12" x="0" y="108" fill="#000" shape-rendering="optimizeSpeed"/><rect width="12" height="12" x="24" y="108" fill="#000" shape-rendering="optimizeSpeed"/><rect width="12" height="12" x="108" y="108" fill="#000" shape-rendering="optimizeSpeed"/><rect width="12" height="12" x="144" y="108" fill="#000" shape-rendering="optimizeSpeed"/><rect width="12" height="12" x="156" y="108" fill="#000" shape-rendering="optimizeSpeed"/><rect width="12" height="12" x="168" y="108" fill="#000" shape-rendering="optimizeSpeed"/><rect width="12" height="12" x="180" y="108" fill="#000" shape-rendering="optimizeSpeed"/><rect width="12" height="12" x="204" y="108" fill="#000" shape-rendering="optimizeSpeed"/><rect width="12" height="12" x="228" y="108" fill="#000" shape-rendering="optimizeSpeed"/><rect width="12" height="12" x="240" y="108" fill="#000" shape-rendering="optimizeSpeed"/><rect width="12" height="12" x="252" y="108" fill="#000" shape-rendering="optimizeSpeed"/><rect width="12" height="12" x="264" y="108" fill="#000" shape-rendering="optimizeSpeed"/><rect width="12" height="12" x="276" y="108" fill="#000" shape-rendering="optimizeSpeed"/><rect width="12" height="12" x="0" y="120" fill="#000" shape-rendering="optimizeSpeed"/><rect width="12" height="12" x="24" y="120" fill="#000" shape-rendering="optimizeSpeed"/><rect width="12" height="12" x="36" y="120" fill="#000" shape-rendering="optimizeSpeed"/><rect width="12" height="12" x="60" y="120" fill="#000" shape-rendering="optimizeSpeed"/><rect width="12" height="12" x="72" y="120" fill="#000" shape-rendering="optimizeSpeed"/><rect width="12" height="12" x="84" y="120" fill="#000" shape-rendering="optimizeSpeed"/><rect width="12" height="12" x="120" y="120" fill="#000" shape-rendering="optimizeSpeed"/><rect width="12" height="12" x="132" y="120" fill="#000" shape-rendering="optimizeSpeed"/><rect width="12" height="12" x="156" y="120" fill="#000" shape-rendering="optimizeSpeed"/><rect width="12" height="12" x="180" y="120" fill="#000" shape-rendering="optimizeSpeed"/><rect width="12" height="12" x="192" y="120" fill="#000" shape-rendering="optimizeSpeed"/><rect width="12" height="12" x="216" y="120" fill="#000" shape-rendering="optimizeSpeed"/><rect width="12" height="12" x="228" y="120" fill="#000" shape-rendering="optimizeSpeed"/><rect width="12" height="12" x="252" y="120" fill="#000" shape-rendering="optimizeSpeed"/><rect width="12" height="12" x="288" y="120" fill="#000" shape-rendering="optimizeSpeed"/><rect width="12" height="12" x="12" y="132" fill="#000" shape-rendering="optimizeSpeed"/><rect width="12" height="12" x="24" y="132" fill="#000" shape-rendering="optimizeSpeed"/><rect width="12" height="12" x="36" y="132" fill="#000" shape-rendering="optimizeSpeed"/><rect width="12" height="12" x="48" y="132" fill="#000" shape-rendering="optimizeSpeed"/><rect width="12" height="12" x="108" y="132" fill="#000" shape-rendering="optimizeSpeed"/><rect width="12" height="12" x="120" y="132" fill="#000" shape-rendering="optimizeSpeed"/><rect width="12" height="12" x="132" y="132" fill="#000" shape-rendering="optimizeSpeed"/><rect width="12" height="12" x="144" y="132" fill="#000" shape-rendering="optimizeSpeed"/><rect width="12" height="12" x="168" y="132" fill="#000" shape-rendering="optimizeSpeed"/><rect width="12" height="12" x="180" y="132" fill="#000" shape-rendering="optimizeSpeed"/><rect width="12" height="12" x="228" y="132" fill="#000" shape-rendering="optimizeSpeed"/><rect width="12" height="12" x="252" y="132" fill="#000" shape-rendering="optimizeSpeed"/><rect width="12" height="12" x="264" y="132" fill="#000" shape-rendering="optimizeSpeed"/><rect width="12" height="12" x="276" y="132" fill="#000" shape-rendering="optimizeSpeed"/><rect width="12" height="12" x="288" y="132" fill="#000" shape-rendering="optimizeSpeed"/><rect width="12" height="12" x="0" y="144" fill="#000" shape-rendering="optimizeSpeed"/><rect width="12" height="12" x="24" y="144" fill="#000" shape-rendering="optimizeSpeed"/><rect width="12" height="12" x="36" y="144" fill="#000" shape-rendering="optimizeSpeed"/><rect width="12" height="12" x="48" y="144" fill="#000" shape-rendering="optimizeSpeed"/><rect width="12" height="12" x="60" y="144" fill="#000" shape-rendering="optimizeSpeed"/><rect width="12" height="12" x="72" y="144" fill="#000" shape-rendering="optimizeSpeed"/><rect width="12" height="12" x="84" y="144" fill="#000" shape-rendering="optimizeSpeed"/><rect width="12" height="12" x="108" y="144" fill="#000" shape-rendering="optimizeSpeed"/><rect width="12" height="12" x="132" y="144" fill="#000" shape-rendering="optimizeSpeed"/><rect width="12" height="12" x="144" y="144" fill="#000" shape-rendering="optimizeSpeed"/><rect width="12" height="12" x="180" y="144" fill="#000" shape-rendering="optimizeSpeed"/><rect width="12" height="12" x="192" y="144" fill="#000" shape-rendering="optimizeSpeed"/><rect width="12" height="12" x="204" y="144" fill="#000" shape-rendering="optimizeSpeed"/><rect width="12" height="12" x="216" y="144" fill="#000" shape-rendering="optimizeSpeed"/><rect width="12" height="12" x="288" y="144" fill="#000" shape-rendering="optimizeSpeed"/><rect width="12" height="12" x="0" y="156" fill="#000" shape-rendering="optimizeSpeed"/><rect width="12" height="12" x="24" y="156" fill="#000" shape-rendering="optimizeSpeed"/><rect width="12" height="12" x="36" y="156" fill="#000" shape-rendering="optimizeSpeed"/><rect width="12" height="12" x="48" y="156" fill="#000" shape-rendering="optimizeSpeed"/><rect width="12" height="12" x="60" y="156" fill="#000" shape-rendering="optimizeSpeed"/><rect width="12" height="12" x="96" y="156" fill="#000" shape-rendering="optimizeSpeed"/><rect width="12" height="12" x="108" y="156" fill="#000" shape-rendering="optimizeSpeed"/><rect width="12" height="12" x="168" y="156" fill="#000" shape-rendering="optimizeSpeed"/><rect width="12" height="12" x="180" y="156" fill="#000" shape-rendering="optimizeSpeed"/><rect width="12" height="12" x="192" y="156" fill="#000" shape-rendering="optimizeSpeed"/><rect width="12" height="12" x="240" y="156" fill="#000" shape-rendering="optimizeSpeed"/><rect width="12" height="12" x="276" y="156" fill="#000" shape-rendering="optimizeSpeed"/><rect width="12" height="12" x="0" y="168" fill="#000" shape-rendering="optimizeSpeed"/><rect width="12" height="12" x="12" y="168" fill="#000" shape-rendering="optimizeSpeed"/><rect width="12" height="12" x="24" y="168" fill="#000" shape-rendering="optimizeSpeed"/><rect width="12" height="12" x="60" y="168" fill="#000" shape-rendering="optimizeSpeed"/><rect width="12" height="12" x="72" y="168" fill="#000" shape-rendering="optimizeSpeed"/><rect width="12" height="12" x="108" y="168" fill="#000" shape-rendering="optimizeSpeed"/><rect width="12" height="12" x="120" y="168" fill="#000" shape-rendering="optimizeSpeed"/><rect width="12" height="12" x="132" y="168" fill="#000" shape-rendering="optimizeSpeed"/><rect width="12" height="12" x="144" y="168" fill="#000" shape-rendering="optimizeSpeed"/><rect width="12" height="12" x="156" y="168" fill="#000" shape-rendering="optimizeSpeed"/><rect width="12" height="12" x="168" y="168" fill="#000" shape-rendering="optimizeSpeed"/><rect width="12" height="12" x="180" y="168" fill="#000" shape-rendering="optimizeSpeed"/><rect width="12" height="12" x="204" y="168" fill="#000" shape-rendering="optimizeSpeed"/><rect width="12" height="12" x="240" y="168" fill="#000" shape-rendering="optimizeSpeed"/><rect width="12" height="12" x="252" y="168" fill="#000" shape-rendering="optimizeSpeed"/><rect width="12" height="12" x="264" y="168" fill="#000" shape-rendering="optimizeSpeed"/><rect width="12" height="12" x="276" y="168" fill="#000" shape-rendering="optimizeSpeed"/><rect width="12" height="12" x="288" y="168" fill="#000" shape-rendering="optimizeSpeed"/><rect width="12" height="12" x="0" y="180" fill="#000" shape-rendering="optimizeSpeed"/><rect width="12" height="12" x="24" y="180" fill="#000" shape-rendering="optimizeSpeed"/><rect width="12" height="12" x="36" y="180" fill="#000" shape-rendering="optimizeSpeed"/><rect width="12" height="12" x="48" y="180" fill="#000" shape-rendering="optimizeSpeed"/><rect width="12" height="12" x="84" y="180" fill="#000" shape-rendering="optimizeSpeed"/><rect width="12" height="12" x="96" y="180" fill="#000" shape-rendering="optimizeSpeed"/><rect width="12" height="12" x="108" y="180" fill="#000" shape-rendering="optimizeSpeed"/><rect width="12" height="12" x="132" y="180" fill="#000" shape-rendering="optimizeSpeed"/><rect width="12" height="12" x="180" y="180" fill="#000" shape-rendering="optimizeSpeed"/><rect width="12" height="12" x="228" y="180" fill="#000" shape-rendering="optimizeSpeed"/><rect width="12" height="12" x="240" y="180" fill="#000" shape-rendering="optimizeSpeed"/><rect width="12" height="12" x="264" y="180" fill="#000" shape-rendering="optimizeSpeed"/><rect width="12" height="12" x="288" y="180" fill="#000" shape-rendering="optimizeSpeed"/><rect width="12" height="12" x="0" y="192" fill="#000" shape-rendering="optimizeSpeed"/><rect width="12" height="12" x="48" y="192" fill="#000" shape-rendering="optimizeSpeed"/><rect width="12" height="12" x="60" y="192" fill="#000" shape-rendering="optimizeSpeed"/><rect width="12" height="12" x="72" y="192" fill="#000" shape-rendering="optimizeSpeed"/><rect width="12" height="12" x="84" y="192" fill="#000" shape-rendering="optimizeSpeed"/><rect width="12" height="12" x="96" y="192" fill="#000" shape-rendering="optimizeSpeed"/><rect width="12" height="12" x="120" y="192" fill="#000" shape-rendering="optimizeSpeed"/><rect width="12" height="12" x="168" y="192" fill="#000" shape-rendering="optimizeSpeed"/><rect width="12" height="12" x="192" y="192" fill="#000" shape-rendering="optimizeSpeed"/><rect width="12" height="12" x="204" y="192" fill="#000" shape-rendering="optimizeSpeed"/><rect width="12" height="12" x="216" y="192" fill="#000" shape-rendering="optimizeSpeed"/><rect width="12" height="12" x="228" y="192" fill="#000" shape-rendering="optimizeSpeed"/><rect width="12" height="12" x="240" y="192" fill="#000" shape-rendering="optimizeSpeed"/><rect width="12" height="12" x="264" y="192" fill="#000" shape-rendering="optimizeSpeed"/><rect width="12" height="12" x="276" y="192" fill="#000" shape-rendering="optimizeSpeed"/><rect width="12" height="12" x="96" y="204" fill="#000" shape-rendering="optimizeSpeed"/><rect width="12" height="12" x="132" y="204" fill="#000" shape-rendering="optimizeSpeed"/><rect width="12" height="12" x="144" y="204" fill="#000" shape-rendering="optimizeSpeed"/><rect width="12" height="12" x="156" y="204" fill="#000" shape-rendering="optimizeSpeed"/><rect width="12" height="12" x="192" y="204" fill="#000" shape-rendering="optimizeSpeed"/><rect width="12" height="12" x="240" y="204" fill="#000" shape-rendering="optimizeSpeed"/><rect width="12" height="12" x="276" y="204" fill="#000" shape-rendering="optimizeSpeed"/><rect width="12" height="12" x="0" y="216" fill="#000" shape-rendering="optimizeSpeed"/><rect width="12" height="12" x="12" y="216" fill="#000" shape-rendering="optimizeSpeed"/><rect width="12" height="12" x="24" y="216" fill="#000" shape-rendering="optimizeSpeed"/><rect width="12" height="12" x="36" y="216" fill="#000" shape-rendering="optimizeSpeed"/><rect width="12" height="12" x="48" y="216" fill="#000" shape-rendering="optimizeSpeed"/><rect width="12" height="12" x="60" y="216" fill="#000" shape-rendering="optimizeSpeed"/><rect width="12" height="12" x="72" y="216" fill="#000" shape-rendering="optimizeSpeed"/><rect width="12" height="12" x="108" y="216" fill="#000" shape-rendering="optimizeSpeed"/><rect width="12" height="12" x="120" y="216" fill="#000" shape-rendering="optimizeSpeed"/><rect width="12" height="12" x="132" y="216" fill="#000" shape-rendering="optimizeSpeed"/><rect width="12" height="12" x="192" y="216" fill="#000" shape-rendering="optimizeSpeed"/><rect width="12" height="12" x="216" y="216" fill="#000" shape-rendering="optimizeSpeed"/><rect width="12" height="12" x="240" y="216" fill="#000" shape-rendering="optimizeSpeed"/><rect width="12" height="12" x="252" y="216" fill="#000" shape-rendering="optimizeSpeed"/><rect width="12" height="12" x="288" y="216" fill="#000" shape-rendering="optimizeSpeed"/><rect width="12" height="12" x="0" y="228" fill="#000" shape-rendering="optimizeSpeed"/><rect width="12" height="12" x="72" y="228" fill="#000" shape-rendering="optimizeSpeed"/><rect width="12" height="12" x="108" y="228" fill="#000" shape-rendering="optimizeSpeed"/><rect width="12" height="12" x="120" y="228" fill="#000" shape-rendering="optimizeSpeed"/><rect width="12" height="12" x="144" y="228" fill="#000" shape-rendering="optimizeSpeed"/><rect width="12" height="12" x="168" y="228" fill="#000" shape-rendering="optimizeSpeed"/><rect width="12" height="12" x="180" y="228" fill="#000" shape-rendering="optimizeSpeed"/><rect width="12" height="12" x="192" y="228" fill="#000" shape-rendering="optimizeSpeed"/><rect width="12" height="12" x="240" y="228" fill="#000" shape-rendering="optimizeSpeed"/><rect width="12" height="12" x="276" y="228" fill="#000" shape-rendering="optimizeSpeed"/><rect width="12" height="12" x="288" y="228" fill="#000" shape-rendering="optimizeSpeed"/><rect width="12" height="12" x="0" y="240" fill="#000" shape-rendering="optimizeSpeed"/><rect width="12" height="12" x="24" y="240" fill="#000" shape-rendering="optimizeSpeed"/><rect width="12" height="12" x="36" y="240" fill="#000" shape-rendering="optimizeSpeed"/><rect width="12" height="12" x="48" y="240" fill="#000" shape-rendering="optimizeSpeed"/><rect width="12" height="12" x="72" y="240" fill="#000" shape-rendering="optimizeSpeed"/><rect width="12" height="12" x="96" y="240" fill="#000" shape-rendering="optimizeSpeed"/><rect width="12" height="12" x="108" y="240" fill="#000" shape-rendering="optimizeSpeed"/><rect width="12" height="12" x="144" y="240" fill="#000" shape-rendering="optimizeSpeed"/><rect width="12" height="12" x="156" y="240" fill="#000" shape-rendering="optimizeSpeed"/><rect width="12" height="12" x="168" y="240" fill="#000" shape-rendering="optimizeSpeed"/><rect width="12" height="12" x="180" y="240" fill="#000" shape-rendering="optimizeSpeed"/><rect width="12" height="12" x="192" y="240" fill="#000" shape-rendering="optimizeSpeed"/><rect width="12" height="12" x="204" y="240" fill="#000" shape-rendering="optimizeSpeed"/><rect width="12" height="12" x="216" y="240" fill="#000" shape-rendering="optimizeSpeed"/><rect width="12" height="12" x="228" y="240" fill="#000" shape-rendering="optimizeSpeed"/><rect width="12" height="12" x="240" y="240" fill="#000" shape-rendering="optimizeSpeed"/><rect width="12" height="12" x="252" y="240" fill="#000" shape-rendering="optimizeSpeed"/><rect width="12" height="12" x="276" y="240" fill="#000" shape-rendering="optimizeSpeed"/><rect width="12" height="12" x="288" y="240" fill="#000" shape-rendering="optimizeSpeed"/><rect width="12" height="12" x="0" y="252" fill="#000" shape-rendering="optimizeSpeed"/><rect width="12" height="12" x="24" y="252" fill="#000" shape-rendering="optimizeSpeed"/><rect width="12" height="12" x="36" y="252" fill="#000" shape-rendering="optimizeSpeed"/><rect width="12" height="12" x="48" y="252" fill="#000" shape-rendering="optimizeSpeed"/><rect width="12" height="12" x="72" y="252" fill="#000" shape-rendering="optimizeSpeed"/><rect width="12" height="12" x="96" y="252" fill="#000" shape-rendering="optimizeSpeed"/><rect width="12" height="12" x="120" y="252" fill="#000" shape-rendering="optimizeSpeed"/><rect width="12" height="12" x="168" y="252" fill="#000" shape-rendering="optimizeSpeed"/><rect width="12" height="12" x="180" y="252" fill="#000" shape-rendering="optimizeSpeed"/><rect width="12" height="12" x="204" y="252" fill="#000" shape-rendering="optimizeSpeed"/><rect width="12" height="12" x="216" y="252" fill="#000" shape-rendering="optimizeSpeed"/><rect width="12" height="12" x="228" y="252" fill="#000" shape-rendering="optimizeSpeed"/><rect width="12" height="12" x="252" y="252" fill="#000" shape-rendering="optimizeSpeed"/><rect width="12" height="12" x="276" y="252" fill="#000" shape-rendering="optimizeSpeed"/><rect width="12" height="12" x="288" y="252" fill="#000" shape-rendering="optimizeSpeed"/><rect width="12" height="12" x="0" y="264" fill="#000" shape-rendering="optimizeSpeed"/><rect width="12" height="12" x="24" y="264" fill="#000" shape-rendering="optimizeSpeed"/><rect width="12" height="12" x="36" y="264" fill="#000" shape-rendering="optimizeSpeed"/><rect width="12" height="12" x="48" y="264" fill="#000" shape-rendering="optimizeSpeed"/><rect width="12" height="12" x="72" y="264" fill="#000" shape-rendering="optimizeSpeed"/><rect width="12" height="12" x="144" y="264" fill="#000" shape-rendering="optimizeSpeed"/><rect width="12" height="12" x="168" y="264" fill="#000" shape-rendering="optimizeSpeed"/><rect width="12" height="12" x="192" y="264" fill="#000" shape-rendering="optimizeSpeed"/><rect width="12" height="12" x="204" y="264" fill="#000" shape-rendering="optimizeSpeed"/><rect width="12" height="12" x="228" y="264" fill="#000" shape-rendering="optimizeSpeed"/><rect width="12" height="12" x="240" y="264" fill="#000" shape-rendering="optimizeSpeed"/><rect width="12" height="12" x="264" y="264" fill="#000" shape-rendering="optimizeSpeed"/><rect width="12" height="12" x="276" y="264" fill="#000" shape-rendering="optimizeSpeed"/><rect width="12" height="12" x="288" y="264" fill="#000" shape-rendering="optimizeSpeed"/><rect width="12" height="12" x="0" y="276" fill="#000" shape-rendering="optimizeSpeed"/><rect width="12" height="12" x="72" y="276" fill="#000" shape-rendering="optimizeSpeed"/><rect width="12" height="12" x="96" y="276" fill="#000" shape-rendering="optimizeSpeed"/><rect width="12" height="12" x="168" y="276" fill="#000" shape-rendering="optimizeSpeed"/><rect width="12" height="12" x="216" y="276" fill="#000" shape-rendering="optimizeSpeed"/><rect width="12" height="12" x="228" y="276" fill="#000" shape-rendering="optimizeSpeed"/><rect width="12" height="12" x="240" y="276" fill="#000" shape-rendering="optimizeSpeed"/><rect width="12" height="12" x="264" y="276" fill="#000" shape-rendering="optimizeSpeed"/><rect width="12" height="12" x="276" y="276" fill="#000" shape-rendering="optimizeSpeed"/><rect width="12" height="12" x="288" y="276" fill="#000" shape-rendering="optimizeSpeed"/><rect width="12" height="12" x="0" y="288" fill="#000" shape-rendering="optimizeSpeed"/><rect width="12" height="12" x="12" y="288" fill="#000" shape-rendering="optimizeSpeed"/><rect width="12" height="12" x="24" y="288" fill="#000" shape-rendering="optimizeSpeed"/><rect width="12" height="12" x="36" y="288" fill="#000" shape-rendering="optimizeSpeed"/><rect width="12" height="12" x="48" y="288" fill="#000" shape-rendering="optimizeSpeed"/><rect width="12" height="12" x="60" y="288" fill="#000" shape-rendering="optimizeSpeed"/><rect width="12" height="12" x="72" y="288" fill="#000" shape-rendering="optimizeSpeed"/><rect width="12" height="12" x="96" y="288" fill="#000" shape-rendering="optimizeSpeed"/><rect width="12" height="12" x="108" y="288" fill="#000" shape-rendering="optimizeSpeed"/><rect width="12" height="12" x="156" y="288" fill="#000" shape-rendering="optimizeSpeed"/><rect width="12" height="12" x="168" y="288" fill="#000" shape-rendering="optimizeSpeed"/><rect width="12" height="12" x="192" y="288" fill="#000" shape-rendering="optimizeSpeed"/><rect width="12" height="12" x="252" y="288" fill="#000" shape-rendering="optimizeSpeed"/><rect width="12" height="12" x="288" y="288" fill="#000" shape-rendering="optimizeSpeed"/></svg>