<svg width="32" height="32" viewBox="0 0 32 32" fill="none" xmlns="http://www.w3.org/2000/svg">
<path d="M25.9762 -0.34375H6.02196C2.50628 -0.34375 -0.34375 2.50628 -0.34375 6.02196V25.9762C-0.34375 29.4919 2.50628 32.342 6.02196 32.342H25.9762C29.4919 32.342 32.342 29.4919 32.342 25.9762V6.02196C32.342 2.50628 29.4919 -0.34375 25.9762 -0.34375Z" fill="url(#paint0_linear_747_1836)"/>
<path d="M25.713 17.1035L16.2101 12.2978C16.1618 12.2753 16.1092 12.2637 16.0559 12.2637C16.0025 12.2637 15.9499 12.2753 15.9016 12.2978L6.39871 17.1035C6.34246 17.1333 6.29527 17.1776 6.26209 17.2319C6.22891 17.2862 6.21096 17.3485 6.21014 17.4121C6.21075 17.475 6.22867 17.5366 6.26193 17.59C6.29519 17.6434 6.34251 17.6866 6.39871 17.715L6.90157 17.9721V21.5321C6.64109 21.614 6.41856 21.7865 6.27424 22.0183C6.12992 22.2501 6.07336 22.5259 6.1148 22.7957C6.15624 23.0656 6.29293 23.3118 6.50014 23.4896C6.70735 23.6674 6.97137 23.7652 7.24442 23.7652C7.51747 23.7652 7.7815 23.6674 7.9887 23.4896C8.19591 23.3118 8.33261 23.0656 8.37404 22.7957C8.41548 22.5259 8.35892 22.2501 8.2146 22.0183C8.07029 21.7865 7.84775 21.614 7.58728 21.5321V18.315L10.4444 19.7607V24.7721C10.445 24.835 10.463 24.8966 10.4962 24.95C10.5295 25.0034 10.5768 25.0466 10.633 25.075L15.8959 27.7378C15.9443 27.76 15.9969 27.7717 16.0501 27.7721C16.1035 27.7722 16.1562 27.7605 16.2044 27.7378L21.3473 25.1264C21.4039 25.0986 21.4516 25.0555 21.4849 25.0019C21.5182 24.9484 21.5359 24.8866 21.5358 24.8235V19.8178L25.713 17.715C25.77 17.6877 25.8181 17.6447 25.8515 17.5911C25.8849 17.5374 25.9023 17.4753 25.9016 17.4121C25.902 17.3482 25.8846 17.2854 25.8513 17.2309C25.8179 17.1764 25.7701 17.1323 25.713 17.1035ZM7.24442 23.075C7.15401 23.075 7.06562 23.0481 6.99045 22.9979C6.91527 22.9477 6.85668 22.8763 6.82208 22.7928C6.78748 22.7092 6.77842 22.6173 6.79606 22.5286C6.8137 22.4399 6.85724 22.3585 6.92117 22.2946C6.98511 22.2306 7.06656 22.1871 7.15524 22.1695C7.24392 22.1518 7.33583 22.1609 7.41936 22.1955C7.5029 22.2301 7.57429 22.2887 7.62452 22.3638C7.67475 22.439 7.70156 22.5274 7.70156 22.6178C7.70156 22.7391 7.6534 22.8553 7.56767 22.9411C7.48194 23.0268 7.36566 23.075 7.24442 23.075ZM20.8673 24.6121L16.0501 27.0464L11.1301 24.5721V20.1092L15.9016 22.5207C15.9482 22.5484 16.0017 22.5622 16.0559 22.5607C16.1099 22.5611 16.1631 22.5473 16.2101 22.5207L20.8673 20.1664V24.6121Z" fill="white"/>
<path d="M14.4801 8.14311L13.863 10.0345C13.8409 10.1035 13.8411 10.1776 13.8637 10.2464C13.8863 10.3152 13.93 10.375 13.9887 10.4174C14.0459 10.4619 14.1163 10.486 14.1887 10.486C14.2612 10.486 14.3315 10.4619 14.3887 10.4174L16.0001 9.27454L17.6116 10.4174C17.6683 10.4627 17.739 10.4869 17.8116 10.486C17.884 10.486 17.9544 10.4619 18.0116 10.4174C18.0703 10.375 18.114 10.3152 18.1366 10.2464C18.1592 10.1776 18.1594 10.1035 18.1373 10.0345L17.5201 8.14311L19.1316 7.00025C19.1903 6.95788 19.234 6.89802 19.2566 6.82924C19.2792 6.76047 19.2794 6.68631 19.2573 6.6174C19.2347 6.54848 19.1912 6.48832 19.1328 6.4453C19.0744 6.40228 19.0041 6.37855 18.9316 6.3774H16.943L16.3259 4.48597C16.2968 4.42417 16.2507 4.37192 16.193 4.33532C16.1353 4.29873 16.0684 4.2793 16.0001 4.2793C15.9318 4.2793 15.8649 4.29873 15.8073 4.33532C15.7496 4.37192 15.7035 4.42417 15.6744 4.48597L15.0573 6.3774H13.0744C13.0009 6.37735 12.9293 6.40054 12.8698 6.44364C12.8103 6.48675 12.7659 6.54756 12.743 6.6174C12.7209 6.68631 12.7211 6.76047 12.7437 6.82924C12.7663 6.89802 12.81 6.95788 12.8687 7.00025L14.4801 8.14311Z" fill="white"/>
<path d="M6.43117 12.9556C6.40657 13.0238 6.40498 13.0981 6.42665 13.1673C6.44833 13.2364 6.49206 13.2965 6.55117 13.3385C6.61052 13.383 6.6827 13.407 6.75688 13.407C6.82918 13.4062 6.89929 13.3822 6.95688 13.3385L7.95117 12.6185L8.94546 13.3385C9.00263 13.3829 9.07301 13.4071 9.14546 13.4071C9.2179 13.4071 9.28828 13.3829 9.34546 13.3385C9.40414 13.2961 9.44791 13.2362 9.47049 13.1675C9.49308 13.0987 9.49331 13.0245 9.47117 12.9556L9.09403 11.8128L10.0826 11.087C10.1413 11.0447 10.1851 10.9848 10.2076 10.916C10.2302 10.8473 10.2305 10.7731 10.2083 10.7042C10.1855 10.6359 10.1418 10.5765 10.0833 10.5344C10.0248 10.4924 9.95462 10.4698 9.8826 10.4699H8.65403L8.27688 9.29847C8.24779 9.23667 8.20172 9.18442 8.14404 9.14782C8.08637 9.11123 8.01947 9.0918 7.95117 9.0918C7.88286 9.0918 7.81597 9.11123 7.7583 9.14782C7.70062 9.18442 7.65455 9.23667 7.62546 9.29847L7.2426 10.4699H6.01403C5.94201 10.4698 5.87179 10.4924 5.81332 10.5344C5.75486 10.5765 5.71112 10.6359 5.68831 10.7042C5.66617 10.7731 5.6664 10.8473 5.68899 10.916C5.71157 10.9848 5.75534 11.0447 5.81403 11.087L6.80831 11.8128L6.43117 12.9556ZM7.49403 11.1328C7.56675 11.1325 7.63751 11.1091 7.69606 11.0659C7.75461 11.0228 7.79792 10.9621 7.81974 10.8928L7.95117 10.4928L8.0826 10.8928C8.10442 10.9621 8.14773 11.0228 8.20628 11.0659C8.26483 11.1091 8.33558 11.1325 8.40831 11.1328H8.83117L8.48831 11.3785C8.4303 11.4214 8.38704 11.4813 8.36452 11.5499C8.34201 11.6185 8.34133 11.6923 8.3626 11.7613L8.49403 12.167L8.15117 11.9156C8.09306 11.8736 8.02288 11.8515 7.95117 11.8528C7.87757 11.8507 7.80532 11.8728 7.74545 11.9156L7.40831 12.167L7.53974 11.7613C7.56101 11.6923 7.56033 11.6185 7.53781 11.5499C7.5153 11.4813 7.47204 11.4214 7.41403 11.3785L7.07117 11.1328H7.49403Z" fill="white"/>
<path d="M26.2792 10.6788C26.2564 10.6105 26.2127 10.5511 26.1542 10.509C26.0957 10.467 26.0255 10.4444 25.9535 10.4445H24.7478L24.3649 9.27308C24.3358 9.21128 24.2898 9.15903 24.2321 9.12243C24.1744 9.08584 24.1075 9.06641 24.0392 9.06641C23.9709 9.06641 23.904 9.08584 23.8463 9.12243C23.7887 9.15903 23.7426 9.21128 23.7135 9.27308L23.3363 10.4445H22.1078C22.0358 10.4444 21.9655 10.467 21.9071 10.509C21.8486 10.5511 21.8049 10.6105 21.7821 10.6788C21.7599 10.7477 21.7602 10.8219 21.7827 10.8906C21.8053 10.9594 21.8491 11.0193 21.9078 11.0616L22.8963 11.7874L22.5192 12.9302C22.4971 12.9991 22.4973 13.0733 22.5199 13.1421C22.5425 13.2108 22.5862 13.2707 22.6449 13.3131C22.7021 13.3576 22.7725 13.3817 22.8449 13.3817C22.9174 13.3817 22.9877 13.3576 23.0449 13.3131L24.0392 12.5931L25.0335 13.3131C25.0911 13.3568 25.1612 13.3808 25.2335 13.3816C25.3077 13.3816 25.3799 13.3576 25.4392 13.3131C25.4983 13.2712 25.542 13.211 25.5637 13.1419C25.5854 13.0727 25.5838 12.9984 25.5592 12.9302L25.1821 11.7874L26.1763 11.0616C26.231 11.0163 26.2703 10.9552 26.2887 10.8866C26.3071 10.818 26.3038 10.7454 26.2792 10.6788ZM24.4506 11.7588L24.5821 12.1645L24.2449 11.9131C24.1854 11.8715 24.1146 11.8493 24.0421 11.8493C23.9695 11.8493 23.8987 11.8715 23.8392 11.9131L23.4963 12.1645L23.6278 11.7588C23.649 11.6898 23.6484 11.6159 23.6258 11.5474C23.6033 11.4788 23.5601 11.4189 23.5021 11.3759L23.1592 11.1302H23.5821C23.6548 11.1299 23.7255 11.1065 23.7841 11.0634C23.8426 11.0202 23.886 10.9596 23.9078 10.8902L24.0392 10.4902L24.1706 10.8902C24.1925 10.9596 24.2358 11.0202 24.2943 11.0634C24.3529 11.1065 24.4236 11.1299 24.4963 11.1302H24.9192L24.5763 11.3759C24.5183 11.4189 24.4751 11.4788 24.4526 11.5474C24.43 11.6159 24.4294 11.6898 24.4506 11.7588Z" fill="white"/>
<defs>
<linearGradient id="paint0_linear_747_1836" x1="-0.34375" y1="15.9991" x2="32.342" y2="15.9991" gradientUnits="userSpaceOnUse">
<stop stop-color="#5BB4F6"/>
<stop offset="0.61" stop-color="#2191E5"/>
<stop offset="1" stop-color="#007EDB"/>
</linearGradient>
</defs>
</svg>
